<?xml version="1.0" standalone="no"?>
<!DOCTYPE svg PUBLIC "-//W3C//DTD SVG 20010904//EN"
 "http://www.w3.org/TR/2001/REC-SVG-20010904/DTD/svg10.dtd">
<svg version="1.0" xmlns="http://www.w3.org/2000/svg"
 width="1024.000000pt" height="1024.000000pt" viewBox="0 0 1024.000000 1024.000000"
 preserveAspectRatio="xMidYMid meet">
<metadata>
Created by potrace 1.11, written by Peter Selinger 2001-2013
</metadata>
<g transform="translate(0.000000,1024.000000) scale(0.100000,-0.100000)"
fill="#000000" stroke="none">
<path d="M2467 10229 c-407 -14 -701 -58 -955 -144 -737 -250 -1275 -861
-1431 -1628 -24 -117 -48 -279 -62 -432 -9 -86 -13 -820 -16 -2605 -2 -1367
-3 -2530 -1 -2585 l3 -100 79 155 c551 1086 1161 2009 1914 2898 499 589 902
987 1427 1407 186 149 387 299 433 324 64 34 32 -11 -117 -165 -383 -395 -922
-1039 -1328 -1584 -807 -1086 -1453 -2265 -1950 -3560 -98 -253 -273 -765
-273 -795 0 -32 142 -311 209 -410 176 -262 398 -476 664 -641 323 -202 628
-294 1132 -346 76 -7 780 -12 2279 -15 l2169 -4 -7 63 c-138 1281 54 2478 554
3444 181 352 372 623 604 861 82 85 116 109 116 83 0 -6 -28 -50 -63 -98 -303
-422 -569 -1019 -712 -1596 -109 -442 -155 -849 -155 -1376 0 -455 42 -879
131 -1327 l10 -53 287 0 c785 0 1190 67 1597 266 543 264 958 767 1119 1358
62 223 91 421 106 723 13 271 13 5264 0 5518 -28 519 -94 812 -255 1137 -114
229 -241 403 -423 580 -293 284 -608 457 -1017 558 -222 54 -432 78 -785 90
-349 11 -4950 11 -5283 -1z m6347 -996 c-16 -70 -56 -170 -94 -238 -53 -91
-250 -356 -440 -589 l-145 -178 -2 -76 c-3 -89 -35 -224 -87 -367 -56 -151
-230 -497 -361 -713 -65 -109 -113 -198 -109 -205 21 -36 1118 -1793 1124
-1800 4 -5 51 50 104 122 95 128 185 221 212 221 8 0 14 -4 14 -8 0 -31 -39
-127 -77 -191 -119 -196 -440 -670 -493 -724 -16 -18 -18 -18 -56 3 -21 12
-43 26 -49 30 -25 19 -1992 1203 -2005 1207 -11 3 -41 -43 -104 -159 l-88
-163 5 -605 5 -605 -180 -183 -180 -183 -36 12 c-21 6 -114 38 -207 71 l-170
59 -50 425 c-27 234 -53 430 -56 436 -4 6 -41 -1 -105 -22 l-99 -33 -294 218
-293 218 7 87 7 87 -74 6 c-40 3 -261 16 -490 29 l-417 22 -122 169 -121 168
23 27 c19 21 283 302 393 419 20 21 43 24 610 64 l588 42 177 99 c97 55 186
107 199 115 22 14 10 27 -634 678 -361 366 -664 674 -672 686 -14 20 -10 26
74 111 233 236 600 551 681 586 66 28 76 28 68 0 -15 -48 -53 -97 -167 -214
l-117 -120 873 -263 873 -263 195 129 c521 347 977 555 1265 580 l71 6 149
141 c371 352 575 521 713 591 52 27 146 64 163 65 4 0 5 -12 1 -27z"/>
</g>
</svg>
